<?xml version="1.0" encoding="UTF-8" standalone="no"?>
<!-- Created with Inkscape (http://www.inkscape.org/) -->

<svg
   xmlns:dc="http://purl.org/dc/elements/1.1/"
   xmlns:cc="http://creativecommons.org/ns#"
   xmlns:rdf="http://www.w3.org/1999/02/22-rdf-syntax-ns#"
   xmlns:svg="http://www.w3.org/2000/svg"
   xmlns="http://www.w3.org/2000/svg"
   xmlns:sodipodi="http://sodipodi.sourceforge.net/DTD/sodipodi-0.dtd"
   xmlns:inkscape="http://www.inkscape.org/namespaces/inkscape"
   width="300"
   height="300"
   viewBox="0 0 300 300"
   id="svg6148"
   version="1.1"
   inkscape:version="0.91 r13725"
   sodipodi:docname="logo.svg"
   inkscape:export-filename="C:\Users\Oli\Desktop\wpug.png"
   inkscape:export-xdpi="72"
   inkscape:export-ydpi="72">
  <defs
     id="defs6150" />
  <sodipodi:namedview
     id="base"
     pagecolor="#ffffff"
     bordercolor="#666666"
     borderopacity="1.0"
     inkscape:pageopacity="0.0"
     inkscape:pageshadow="2"
     inkscape:zoom="1.979899"
     inkscape:cx="-15.221636"
     inkscape:cy="200.08516"
     inkscape:document-units="px"
     inkscape:current-layer="layer1"
     showgrid="false"
     units="px"
     inkscape:window-width="1680"
     inkscape:window-height="987"
     inkscape:window-x="-8"
     inkscape:window-y="-8"
     inkscape:window-maximized="1" />
  <metadata
     id="metadata6153">
    <rdf:RDF>
      <cc:Work
         rdf:about="">
        <dc:format>image/svg+xml</dc:format>
        <dc:type
           rdf:resource="http://purl.org/dc/dcmitype/StillImage" />
        <dc:title></dc:title>
      </cc:Work>
    </rdf:RDF>
  </metadata>
  <g
     inkscape:label="Layer 1"
     inkscape:groupmode="layer"
     id="layer1"
     transform="translate(0,-752.36222)">
    <path
       style="fill:#787878;fill-opacity:1;fill-rule:evenodd;stroke:none;stroke-width:4.91425085px;stroke-linecap:butt;stroke-linejoin:miter;stroke-opacity:1"
       d="m 131.79681,766.80772 0,18.71753 a 118.32074,118.32074 0 0 0 -25.04123,6.90916 l -9.07317,-16.36865 -31.843721,17.65093 9.577997,17.27881 a 118.32074,118.32074 0 0 0 -17.295387,17.55613 l -16.055791,-9.26989 -18.203188,31.53088 16.292797,9.40734 a 118.32074,118.32074 0 0 0 -6.157795,23.0147 l -18.997218,0 0,36.40639 18.862104,0 a 118.32074,118.32074 0 0 0 6.380599,24.45582 l -16.26199,9.01388 17.650939,31.84135 16.596199,-9.20115 a 118.32074,118.32074 0 0 0 17.726772,18.0254 l -9.217743,15.96575 31.528503,18.2031 9.077903,-15.7215 a 118.32074,118.32074 0 0 0 24.45342,6.6959 l 0,18.9971 36.40638,0 0,-18.862 a 118.32074,118.32074 0 0 0 26.06043,-6.966 l 8.51854,15.3683 31.84137,-17.6509 -8.95229,-16.15059 a 118.32074,118.32074 0 0 0 17.47318,-17.60829 l 16.2691,9.39322 18.20319,-31.52857 -16.39711,-9.46659 a 118.32074,118.32074 0 0 0 6.3972,-24.43447 l 17.3831,0 0,-36.40639 -17.55138,0 a 118.32074,118.32074 0 0 0 -7.07033,-25.70251 l 16.01074,-8.87406 -17.65092,-31.84136 -17.0015,9.42394 a 118.32074,118.32074 0 0 0 -17.89033,-17.43525 l 9.04946,-15.67181 -31.53087,-18.20319 -9.28885,16.0866 a 118.32074,118.32074 0 0 0 -23.87273,-6.13173 l 0,-18.44732 -36.40638,0 z m 17.83343,38.99703 a 95.263372,95.263372 0 0 1 95.26337,95.26336 95.263372,95.263372 0 0 1 -95.26337,95.26339 95.263372,95.263372 0 0 1 -95.263353,-95.26339 95.263372,95.263372 0 0 1 95.263353,-95.26336 z"
       id="path3348-4"
       inkscape:connector-curvature="0" />
    <path
       style="fill:#e51400;fill-opacity:1;fill-rule:evenodd;stroke:none;stroke-width:3.62236047px;stroke-linecap:butt;stroke-linejoin:miter;stroke-opacity:1"
       d="m 149.389,901.75071 -84.606338,0 c 0,-47.25074 37.355628,-84.50163 84.606338,-84.50163 z"
       id="path3348"
       inkscape:connector-curvature="0"
       sodipodi:nodetypes="cccc" />
    <path
       style="fill:#6cbd45;fill-opacity:1;fill-rule:evenodd;stroke:none;stroke-width:3.62236047px;stroke-linecap:butt;stroke-linejoin:miter;stroke-opacity:1"
       d="m 150.60322,901.75452 0,-84.60635 c 47.25072,0 84.50161,37.35561 84.50161,84.60635 z"
       id="path3348-9"
       inkscape:connector-curvature="0"
       sodipodi:nodetypes="cccc" />
    <path
       style="fill:#4892dd;fill-opacity:1;fill-rule:evenodd;stroke:none;stroke-width:3.62236047px;stroke-linecap:butt;stroke-linejoin:miter;stroke-opacity:1"
       d="m 149.39267,902.9652 -84.606369,0 c 0,47.25073 37.355619,84.50169 84.606369,84.50169 z"
       id="path3348-97"
       inkscape:connector-curvature="0"
       sodipodi:nodetypes="cccc" />
    <path
       style="fill:#f09709;fill-opacity:1;fill-rule:evenodd;stroke:none;stroke-width:3.62236047px;stroke-linecap:butt;stroke-linejoin:miter;stroke-opacity:1"
       d="m 150.6063,902.96563 0,84.60627 c 47.25071,0 84.5016,-37.35552 84.5016,-84.60627 z"
       id="path3348-9-5"
       inkscape:connector-curvature="0"
       sodipodi:nodetypes="cccc" />
    <g
       transform="matrix(0.57845997,0,0,0.57845997,87.473923,835.68032)"
       id="g4"
       style="fill:#ffffff;fill-opacity:1">
      <rect
         x="30"
         y="55"
         width="18"
         height="18"
         id="rect6"
         style="fill:#ffffff;fill-opacity:1;stroke:#e51400;stroke-width:1.9436667;stroke-miterlimit:4;stroke-dasharray:none;stroke-opacity:1" />
      <rect
         x="49"
         y="55"
         width="18"
         height="18"
         id="rect8"
         style="fill:#ffffff;fill-opacity:1;stroke:#e51400;stroke-width:1.9436667;stroke-miterlimit:4;stroke-dasharray:none;stroke-opacity:1" />
      <rect
         x="30"
         y="17"
         width="18"
         height="18"
         id="rect10"
         style="fill:#ffffff;fill-opacity:1;stroke:#e51400;stroke-width:1.9436667;stroke-miterlimit:4;stroke-dasharray:none;stroke-opacity:1" />
      <rect
         x="59"
         y="27"
         width="8"
         height="8"
         id="rect12"
         style="fill:#ffffff;fill-opacity:1;stroke:#e51400;stroke-width:1.9436667;stroke-miterlimit:4;stroke-dasharray:none;stroke-opacity:1" />
      <rect
         x="59"
         y="17"
         width="8"
         height="8"
         id="rect14"
         style="fill:#ffffff;fill-opacity:1;stroke:#e51400;stroke-width:1.9436667;stroke-miterlimit:4;stroke-dasharray:none;stroke-opacity:1" />
      <rect
         x="49"
         y="17"
         width="8"
         height="8"
         id="rect16"
         style="fill:#ffffff;fill-opacity:1;stroke:#e51400;stroke-width:1.9436667;stroke-miterlimit:4;stroke-dasharray:none;stroke-opacity:1" />
      <rect
         x="49"
         y="27"
         width="8"
         height="8"
         id="rect18"
         style="fill:#ffffff;fill-opacity:1;stroke:#e51400;stroke-width:1.9436667;stroke-miterlimit:4;stroke-dasharray:none;stroke-opacity:1" />
      <g
         id="g20"
         style="fill:#ffffff;fill-opacity:1">
        <path
           inkscape:connector-curvature="0"
           d="M 67.81,5 29.19,5 C 27.98,5 27,5.98 27,7.19 l 0,80.62 c 0,1.21 0.98,2.19 2.19,2.19 l 38.62,0 C 69.02,90 70,89.02 70,87.81 L 70,7.19 C 70,5.98 69.02,5 67.81,5 Z M 37,85 l -3.02,0 1.35,1 -1.2,0 -2.13,-1.48 0,-0.01 2.13,-1.51 1.2,0 -1.35,1 3.02,0 z m 11.09,1.11 -1.65,-0.181 0,-1.02 1.65,0 z m 0,-2.02 -1.65,0 0,-1.02 1.65,-0.181 z m 2.47,2.24 -1.649,-0.18 0,-1.24 1.649,0 z m 0,-2.24 -1.65,0 0,-1.24 1.649,-0.18 0,1.42 z m 12.08,1.2 c -0.13,0 -0.26,-0.01 -0.37,-0.05 l -0.739,1.29 -0.511,-0.28 0.74,-1.29 c -0.279,-0.24 -0.45,-0.6 -0.45,-1 0,-0.74 0.591,-1.34 1.33,-1.34 0.74,0 1.341,0.6 1.341,1.34 0,0.74 -0.601,1.33 -1.341,1.33 z M 68,79 l -1,0 -18,0 -1,0 -8,0 -2,0 -8,0 -1,0 0,-63 39,0 z"
           id="path22"
           style="fill:#ffffff;fill-opacity:1"
           sodipodi:nodetypes="sssssssssccccccccccccccccccccccccccccccccsccccssssccccccccccc" />
        <rect
           x="30"
           y="36"
           width="37"
           height="18"
           id="rect24"
           style="fill:#ffffff;fill-opacity:1;stroke:#e51400;stroke-width:1.9436667;stroke-miterlimit:4;stroke-dasharray:none;stroke-opacity:1" />
        <path
           inkscape:connector-curvature="0"
           d="m 62.982,83.177 c -0.003,-0.001 -0.007,-0.003 -0.011,-0.005 -0.022,-0.01 -0.047,-0.015 -0.071,-0.022 -0.083,-0.027 -0.169,-0.045 -0.261,-0.045 -0.092,0 -0.179,0.018 -0.262,0.045 -0.023,0.008 -0.049,0.013 -0.071,0.022 -0.004,0.002 -0.007,0.004 -0.01,0.005 -0.25,0.11 -0.438,0.336 -0.495,0.61 -0.012,0.057 -0.018,0.114 -0.018,0.173 0,0.059 0.006,0.116 0.018,0.172 0.064,0.314 0.303,0.563 0.609,0.648 0.073,0.021 0.148,0.034 0.229,0.034 0.079,0 0.154,-0.014 0.228,-0.034 0.308,-0.086 0.546,-0.334 0.609,-0.648 0.013,-0.056 0.018,-0.113 0.018,-0.172 0,-0.059 -0.005,-0.116 -0.018,-0.173 -0.055,-0.274 -0.243,-0.5 -0.494,-0.61 z"
           id="path26"
           style="fill:#ffffff;fill-opacity:1" />
      </g>
    </g>
    <g
       id="g6000"
       transform="matrix(1.4750729,0,0,1.4750729,-27.819254,721.11255)">
      <path
         style="fill:#ffffff;fill-opacity:1;stroke:#f09709;stroke-width:0.25272223;stroke-miterlimit:4;stroke-dasharray:none;stroke-opacity:1"
         id="path4-5"
         d="m 135.34271,140.48223 c -0.003,0.016 -0.005,0.032 -0.005,0.0484 0.001,-0.0164 0.003,-0.032 0.005,-0.0484 z"
         inkscape:connector-curvature="0" />
      <path
         style="fill:#ffffff;fill-opacity:1;stroke:#f09709;stroke-width:0.25272223;stroke-miterlimit:4;stroke-dasharray:none;stroke-opacity:1"
         id="path6-5"
         d="m 140.569,140.48223 c 0.001,0.0164 0.003,0.032 0.005,0.0484 0,-0.0164 -0.001,-0.0325 -0.005,-0.0484 z"
         inkscape:connector-curvature="0" />
      <path
         style="fill:#ffffff;fill-opacity:1;stroke:#f09709;stroke-width:0.25272223;stroke-miterlimit:4;stroke-dasharray:none;stroke-opacity:1"
         id="path8-5"
         d="m 134.77593,131.86664 c 0.0252,0.0867 0.16049,0.0831 0.15669,0.13436 -0.008,0.11542 -0.0181,0.23715 -0.0273,0.36181 4.4e-4,-0.95149 3.85949,-0.95149 3.85992,0 -0.008,-0.12466 -0.0185,-0.24681 -0.0273,-0.36181 -0.003,-0.0513 0.13141,-0.0477 0.15669,-0.13436 0.0831,-0.28599 -0.123,-0.78933 -0.22367,-1.54456 -0.001,-0.0134 -4.2e-4,-0.0298 0.002,-0.0471 0.032,-0.19628 0.32518,-0.61411 0.0421,-0.87906 -0.75986,-0.71099 -1.81328,-0.66254 -1.81328,-0.66254 l -0.13437,0 c 0,0 -1.05342,-0.0484 -1.81286,0.66297 -0.3079,0.2881 0.0669,0.75817 0.0446,0.92623 -0.10017,0.75479 -0.30663,1.25814 -0.22365,1.54414 z"
         inkscape:connector-curvature="0" />
      <path
         style="fill:#ffffff;fill-opacity:1;stroke:#f09709;stroke-width:0.25272223;stroke-miterlimit:4;stroke-dasharray:none;stroke-opacity:1"
         id="path10-6"
         d="m 139.33925,139.62354 c -0.19164,-2.18059 -0.38076,-4.68674 -0.52018,-6.54088 0,-0.96666 -3.96816,-0.96666 -3.96816,0 -0.13942,1.85414 -0.32812,4.35987 -0.52019,6.54045 0.44816,-0.7649 4.56122,-0.7649 5.00853,4.3e-4 z"
         inkscape:connector-curvature="0" />
      <path
         style="fill:#ffffff;fill-opacity:1;stroke:#f09709;stroke-width:0.25272223;stroke-miterlimit:4;stroke-dasharray:none;stroke-opacity:1"
         id="path12-4"
         d="m 141.37493,146.69091 c -0.005,-0.31759 -0.0118,-0.61285 -0.0185,-0.8799 -0.0224,-0.90853 -1.65617,-2.61861 -1.72356,-3.20072 -0.0746,-0.6457 -0.15248,-1.43041 -0.23082,-2.28629 -0.50417,-0.7565 -4.62987,-0.7565 -5.13405,0 -0.0783,0.85588 -0.15626,1.64059 -0.23081,2.28629 -0.067,0.58211 -1.70126,2.29219 -1.72358,3.20072 -0.006,0.26705 -0.0127,0.56231 -0.0185,0.8799 -0.0712,3.87213 -0.0881,11.19433 -0.0923,14.47172 -8.3e-4,1.02815 -8.3e-4,1.65954 -8.3e-4,1.65954 0,0 0,1.92489 4.16316,1.92489 l 0.94014,0 c 4.16317,0 4.16317,-1.92489 4.16317,-1.92489 0,0 0,-11.04397 -0.0934,-16.13126 z"
         inkscape:connector-curvature="0" />
      <path
         style="fill:#ffffff;fill-opacity:1;stroke:#f09709;stroke-width:0.25272223;stroke-miterlimit:4;stroke-dasharray:none;stroke-opacity:1"
         id="path4-3"
         d="m 149.45348,139.86871 c -0.003,0.016 -0.005,0.032 -0.005,0.0484 0.001,-0.0164 0.003,-0.032 0.005,-0.0484 z"
         inkscape:connector-curvature="0" />
      <path
         style="fill:#ffffff;fill-opacity:1;stroke:#f09709;stroke-width:0.25272223;stroke-miterlimit:4;stroke-dasharray:none;stroke-opacity:1"
         id="path6-4"
         d="m 154.67979,139.86871 c 0.002,0.0164 0.003,0.032 0.005,0.0484 0,-0.0164 -0.001,-0.0324 -0.005,-0.0484 z"
         inkscape:connector-curvature="0" />
      <path
         style="fill:#ffffff;fill-opacity:1;stroke:#f09709;stroke-width:0.25272223;stroke-miterlimit:4;stroke-dasharray:none;stroke-opacity:1"
         id="path8-6"
         d="m 149.95865,131.88653 c 0.0252,0.0867 0.16048,0.0831 0.15668,0.13438 -0.008,0.11541 -0.0181,0.23713 -0.0273,0.3618 4.2e-4,-0.9515 3.8595,-0.9515 3.85993,0 -0.008,-0.12467 -0.0185,-0.24682 -0.0273,-0.3618 -0.003,-0.0513 0.1314,-0.0477 0.15668,-0.13438 0.083,-0.28599 -0.12299,-0.78934 -0.22366,-1.54455 -0.002,-0.0134 -4.2e-4,-0.0299 0.002,-0.0471 0.032,-0.19629 0.32517,-0.61412 0.0421,-0.87905 -0.75985,-0.711 -1.81327,-0.66255 -1.81327,-0.66255 l -0.13437,0 c 0,0 -1.05344,-0.0484 -1.81286,0.66297 -0.30791,0.2881 0.0669,0.75816 0.0446,0.92622 -0.10017,0.7548 -0.30665,1.25813 -0.22366,1.54413 z"
         inkscape:connector-curvature="0" />
      <path
         style="fill:#ffffff;fill-opacity:1;stroke:#f09709;stroke-width:0.25272223;stroke-miterlimit:4;stroke-dasharray:none;stroke-opacity:1"
         id="path10-9"
         d="m 154.52197,139.64343 c -0.19165,-2.18057 -0.38077,-4.68674 -0.52019,-6.54088 0,-0.96666 -3.96816,-0.96666 -3.96816,0 -0.13941,1.85414 -0.32811,4.35988 -0.52018,6.54046 0.44815,-0.76492 4.56122,-0.76492 5.00853,4.2e-4 z"
         inkscape:connector-curvature="0" />
      <path
         style="fill:#ffffff;fill-opacity:1;stroke:#f09709;stroke-width:0.25272223;stroke-miterlimit:4;stroke-dasharray:none;stroke-opacity:1"
         id="path12-3"
         d="m 156.55765,146.7108 c -0.005,-0.31758 -0.0118,-0.61284 -0.0185,-0.87989 -0.0224,-0.90853 -1.65618,-2.61863 -1.72357,-3.20073 -0.0745,-0.6457 -0.15248,-1.4304 -0.23082,-2.2863 -0.50418,-0.75647 -4.62987,-0.75647 -5.13406,0 -0.0783,0.8559 -0.15627,1.6406 -0.23082,2.2863 -0.0669,0.5821 -1.70123,2.2922 -1.72355,3.20073 -0.006,0.26705 -0.0127,0.56231 -0.0185,0.87989 -0.0712,3.87213 -0.0881,11.19433 -0.0923,14.47172 -8.5e-4,1.02816 -8.5e-4,1.65954 -8.5e-4,1.65954 0,0 0,1.92491 4.16319,1.92491 l 0.94014,0 c 4.16316,0 4.16316,-1.92491 4.16316,-1.92491 0,0 0,-11.04396 -0.0934,-16.13126 z"
         inkscape:connector-curvature="0" />
      <path
         inkscape:connector-curvature="0"
         style="fill:#ffffff;fill-opacity:1;stroke:#f09709;stroke-width:0.25272223;stroke-miterlimit:4;stroke-dasharray:none;stroke-opacity:1"
         id="path4"
         d="m 141.62285,142.18892 c -0.003,0.016 -0.005,0.032 -0.005,0.0484 0.001,-0.0164 0.003,-0.032 0.005,-0.0484 z" />
      <path
         inkscape:connector-curvature="0"
         style="fill:#ffffff;fill-opacity:1;stroke:#f09709;stroke-width:0.25272223;stroke-miterlimit:4;stroke-dasharray:none;stroke-opacity:1"
         id="path6"
         d="m 146.84914,142.18892 c 0.001,0.0164 0.003,0.032 0.005,0.0484 0,-0.0164 -0.002,-0.0325 -0.005,-0.0484 z" />
      <path
         inkscape:connector-curvature="0"
         style="fill:#ffffff;fill-opacity:1;stroke:#f09709;stroke-width:0.25272223;stroke-miterlimit:4;stroke-dasharray:none;stroke-opacity:1"
         id="path8"
         d="m 142.17673,133.62206 c 0.0252,0.0867 0.16046,0.083 0.15668,0.13435 -0.008,0.11542 -0.0181,0.23715 -0.0273,0.36181 4.2e-4,-0.95149 3.8595,-0.95149 3.85992,0 -0.008,-0.12466 -0.0185,-0.24681 -0.0273,-0.36181 -0.003,-0.0513 0.13142,-0.0477 0.15668,-0.13435 0.083,-0.286 -0.123,-0.78935 -0.22366,-1.54456 -0.001,-0.0134 -4.2e-4,-0.0298 0.002,-0.0472 0.032,-0.19628 0.32517,-0.61411 0.0421,-0.87905 -0.75984,-0.711 -1.81328,-0.66255 -1.81328,-0.66255 l -0.13436,0 c 0,0 -1.05342,-0.0484 -1.81287,0.66297 -0.30789,0.2881 0.0669,0.75816 0.0446,0.92623 -0.10017,0.75479 -0.30663,1.25814 -0.22365,1.54413 z" />
      <path
         inkscape:connector-curvature="0"
         style="fill:#ffffff;fill-opacity:1;stroke:#f09709;stroke-width:0.25272223;stroke-miterlimit:4;stroke-dasharray:none;stroke-opacity:1"
         id="path10"
         d="m 146.74004,141.37894 c -0.19164,-2.18058 -0.38077,-4.68673 -0.52018,-6.54087 0,-0.96666 -3.96816,-0.96666 -3.96816,0 -0.13943,1.85414 -0.32811,4.35987 -0.52018,6.54045 0.44815,-0.7649 4.5612,-0.7649 5.00852,4.2e-4 z" />
      <path
         inkscape:connector-curvature="0"
         style="fill:#ffffff;fill-opacity:1;stroke:#f09709;stroke-width:0.58322245;stroke-miterlimit:4;stroke-dasharray:none;stroke-opacity:1"
         id="path12"
         d="m 148.77572,148.44631 c -0.005,-0.31758 -0.0118,-0.61284 -0.0185,-0.87989 -0.0224,-0.90854 -1.65618,-2.61862 -1.72355,-3.20072 -0.0745,-0.6457 -0.15249,-1.43041 -0.23083,-2.2863 -0.50418,-0.75648 -4.62987,-0.75648 -5.13405,0 -0.0783,0.85589 -0.15628,1.6406 -0.23083,2.2863 -0.067,0.5821 -1.70124,2.29218 -1.72355,3.20072 -0.006,0.26705 -0.0127,0.56231 -0.0185,0.87989 -0.0712,3.87214 -0.088,11.19434 -0.0923,14.47173 -8.5e-4,1.02815 -8.5e-4,1.65954 -8.5e-4,1.65954 0,0 0,1.9249 4.16319,1.9249 l 0.94013,0 c 4.16317,0 4.16317,-1.9249 4.16317,-1.9249 0,0 0,-11.04396 -0.0934,-16.13127 z" />
    </g>
    <g
       id="g6"
       transform="matrix(-1.3379346,0,0,1.3379346,219.53157,832.28002)"
       style="fill:#ffffff;fill-opacity:1">
      <g
         id="g8"
         style="fill:#ffffff;fill-opacity:1">
        <path
           d="m 40.866,39.079 -0.143,-0.325 -12.027,-27.632 0,0.004 c -0.064,-0.159 -0.161,-0.306 -0.29,-0.433 -0.354,-0.349 -0.861,-0.456 -1.309,-0.325 -0.012,0.004 -0.02,0.004 -0.032,0.008 -0.048,0.021 -0.097,0.04 -0.141,0.056 -0.004,0 -0.006,0 -0.008,0.004 -3.7,1.395 -7.173,3.564 -10.156,6.504 -2.987,2.938 -5.189,6.354 -6.606,10.001 -0.002,0 -0.004,0.005 -0.004,0.005 -0.021,0.055 -0.04,0.106 -0.061,0.162 -0.004,0.004 -0.004,0.008 -0.004,0.012 -0.135,0.44 -0.024,0.939 0.33,1.288 0.113,0.111 0.242,0.198 0.379,0.258 l 0,0.004 28.126,11.872 c 0,0 0.002,0 0.004,0 l 0.314,0.131 c 0.442,0.123 0.938,0.012 1.288,-0.329 0.348,-0.345 0.461,-0.828 0.34,-1.265 z M 25.548,28.987 c -0.554,0.439 -1.147,-0.214 -1.433,-0.412 -0.288,-0.198 -0.483,-0.127 -0.692,0.198 -0.21,0.325 -0.594,1.046 -1.663,0.57 -1.07,-0.472 -1.578,-1.748 -1.021,-3.31 0.562,-1.573 2.126,-1.978 3.023,-1.855 0.899,0.127 1.105,0.968 0.948,1.522 -0.157,0.554 -0.08,0.737 0.358,0.832 0.438,0.1 1.055,0.163 1.144,0.714 0.089,0.552 -0.112,1.301 -0.664,1.741 z m 1.598,-9.009 c -0.975,0.959 -2.549,0.959 -3.519,0 -0.971,-0.956 -0.973,-2.506 0,-3.461 0.97,-0.955 2.544,-0.955 3.517,0 0.973,0.955 0.973,2.504 0.002,3.461 z m 6.271,12.43 c -0.971,0.955 -2.545,0.955 -3.517,0 -0.971,-0.955 -0.971,-2.505 0.002,-3.461 0.97,-0.955 2.544,-0.955 3.515,0 0.97,0.96 0.97,2.506 0,3.461 z M 26.116,8.695 c 0.02,-0.008 0.04,-0.016 0.06,-0.023 0.157,-0.06 0.307,-0.154 0.436,-0.281 0.362,-0.357 0.469,-0.868 0.323,-1.316 L 26.837,6.846 26.24,5.48 C 26.23,5.453 26.219,5.425 26.204,5.397 26.14,5.266 26.056,5.143 25.946,5.037 25.588,4.683 25.073,4.577 24.618,4.716 24.565,4.736 24.514,4.756 24.461,4.776 24.457,4.78 24.457,4.78 24.457,4.78 20.045,6.48 15.908,9.085 12.344,12.592 8.782,16.101 6.136,20.175 4.408,24.52 l -0.001,0 c -0.022,0.06 -0.045,0.115 -0.067,0.171 0,0.004 0,0.004 -0.002,0.008 -0.133,0.44 -0.021,0.939 0.333,1.288 0.108,0.107 0.233,0.19 0.366,0.254 0.028,0.016 0.057,0.027 0.084,0.036 l 1.397,0.59 0.209,0.088 c 0.459,0.15 0.982,0.047 1.349,-0.313 0.129,-0.127 0.226,-0.273 0.288,-0.428 0.008,-0.021 0.016,-0.04 0.022,-0.06 1.516,-3.85 3.851,-7.457 7.005,-10.561 3.152,-3.108 6.816,-5.404 10.725,-6.898 z"
           id="path10-5"
           inkscape:connector-curvature="0"
           style="fill:#ffffff;fill-opacity:1" />
      </g>
    </g>
    <path
       d="m 114.21242,913.56559 c -13.55634,0 -24.585134,11.02882 -24.585134,24.58456 0,13.55574 11.028794,24.58454 24.585134,24.58454 13.55576,0 24.58455,-11.0288 24.58455,-24.58454 0,-13.55574 -11.02879,-24.58456 -24.58455,-24.58456 z m 0,46.2471 c -11.94514,0 -21.66314,-9.71802 -21.66314,-21.66254 0,-11.94456 9.718,-21.66257 21.66314,-21.66257 11.94457,0 21.66255,9.71801 21.66255,21.66257 0,11.94452 -9.71798,21.66254 -21.66255,21.66254 z m 12.06495,-19.15839 -24.13048,0 c -0.64517,0 -1.16879,0.52363 -1.16879,1.1688 0,8.67249 6.65749,13.20978 13.23432,13.20978 6.57683,0 13.23374,-4.53786 13.23374,-13.20978 0,-0.64517 -0.52361,-1.1688 -1.16879,-1.1688 z m -19.9111,-6.52424 c 1.06477,0 1.92734,-0.86259 1.92734,-1.92678 0,-1.06476 -0.86315,-1.92677 -1.92734,-1.92677 -1.0642,0 -1.92678,0.86201 -1.92678,1.92677 0,1.06476 0.86199,1.92678 1.92678,1.92678 z m 15.41647,0 c 1.06362,0 1.9262,-0.86259 1.9262,-1.92678 0,-1.06476 -0.86258,-1.92677 -1.9262,-1.92677 -1.0642,0 -1.92735,0.86201 -1.92735,1.92677 0,1.06476 0.86316,1.92678 1.92735,1.92678 z"
       id="path4-9"
       inkscape:connector-curvature="0"
       style="fill:#ffffff;fill-opacity:1"
       sodipodi:nodetypes="ssssssssssssssssssssssssss" />
  </g>
</svg>
